<svg xmlns="http://www.w3.org/2000/svg" version="1.1" xmlns:xlink="http://www.w3.org/1999/xlink" width="512" height="512" x="0" y="0" viewBox="0 0 512 512" style="enable-background:new 0 0 512 512" xml:space="preserve"><g><path d="M46.531 382.835V117.517c0-3.561 1.382-7.124 4.109-9.853a13.86 13.86 0 0 1 9.861-4.109h390.994c3.561 0 7.122 1.382 9.882 4.109 2.698 2.729 4.078 6.292 4.078 9.853v265.318H46.531z" style="" fill="#242d3c" data-original="#242d3c"></path><path d="M69.811 126.822h372.352v232.73H69.811z" style="" fill="#ffffff" data-original="#ffffff"></path><path d="M261.837 115.203c0 3.22-2.66 5.809-5.842 5.809a5.8 5.8 0 0 1-5.814-5.809 5.8 5.8 0 0 1 5.814-5.809c3.182 0 5.842 2.588 5.842 5.809z" style="" fill="#3e4959" data-original="#3e4959"></path><path d="M258.345 115.203c0 1.277-1.047 2.314-2.35 2.314-1.283 0-2.314-1.037-2.314-2.314s1.029-2.319 2.314-2.319c1.303.002 2.35 1.044 2.35 2.319z" style="" fill="#ffffff" data-original="#ffffff"></path><path d="M0 382.822h512v9.324H0z" style="" fill="#e6e5e5" data-original="#e6e5e5"></path><path d="M512 392.159c0 4.155-1.58 8.325-4.8 11.52-3.162 3.185-7.306 4.767-11.515 4.767H16.276c-4.18 0-8.325-1.582-11.52-4.767A16.265 16.265 0 0 1 0 392.159h512zM209.459 382.822h93.082v4.659h-93.082z" style="" fill="#cccbca" data-original="#cccbca"></path><path d="M94.71 221.568h24.387v19.167H94.71z" style="" fill="#242d3c" data-original="#242d3c"></path><path d="M131.277 185.523h24.389v55.219h-24.389zM167.859 207.314h24.374v33.408h-24.374z" style="" fill="#d9d8d7" data-original="#d9d8d7"></path><path d="M204.442 151.757h24.376v88.988h-24.376z" style="" fill="#f15424" data-original="#f15424"></path><path d="M240.998 173.908h24.376v66.816h-24.376z" style="" fill="#d9d8d7" data-original="#d9d8d7"></path><path d="M94.71 261.043h170.675v9.288H94.71z" style="" fill="#242d3c" data-original="#242d3c"></path><path d="M94.71 279.629h170.675v9.293H94.71zM94.71 298.189h170.675v9.29H94.71zM94.71 316.774h85.325v9.288H94.71z" style="" fill="#cccbca" data-original="#cccbca"></path><path d="M495.196 166.94h-97.759c-9.244 0-16.832 7.572-16.832 16.845v207.834c0 9.257 7.588 16.827 16.832 16.827h97.759c9.249 0 16.804-7.57 16.804-16.827V183.785c0-9.272-7.555-16.845-16.804-16.845z" style="" fill="#242d3c" data-original="#242d3c"></path><path d="M390.144 203.443h112.381v168.486H390.144z" style="" fill="#ffffff" data-original="#ffffff"></path><path d="M435.919 395.415a4.546 4.546 0 0 1-4.541-4.536v-1.364a4.537 4.537 0 0 1 4.541-4.534h20.823c2.473 0 4.49 2.04 4.49 4.534v1.364c0 2.486-2.017 4.536-4.49 4.536h-20.823zM450.545 185.196c0 2.332-1.851 4.229-4.193 4.229-2.348 0-4.268-1.897-4.268-4.229 0-2.337 1.92-4.257 4.268-4.257 2.342.002 4.193 1.922 4.193 4.257z" style="" fill="#3e4959" data-original="#3e4959"></path><path d="M448.015 185.196c0 .922-.753 1.679-1.661 1.679-.978 0-1.743-.758-1.743-1.679 0-.932.765-1.708 1.743-1.708.909.003 1.661.776 1.661 1.708z" style="" fill="#242d3c" data-original="#242d3c"></path><path d="M438.682 203.456a7.632 7.632 0 0 1 5.399 2.237 7.625 7.625 0 0 1 2.243 5.412l-.005 88.737a7.582 7.582 0 0 1-2.243 5.407c-1.49 1.513-3.446 2.232-5.399 2.232h-140.76a7.61 7.61 0 0 1-5.407-2.222 7.72 7.72 0 0 1-2.232-5.417l.005-88.737c0-1.964.742-3.914 2.232-5.412a7.739 7.739 0 0 1 5.402-2.237h140.765z" style="" fill="#16c6cc" data-original="#16c6cc"></path><path d="M309.709 287.283h24.397v5.281h-24.397zM340.634 287.283h24.397v5.263h-24.397zM395.973 292.575l-24.402-.021v-5.261h24.402zM402.509 287.283h24.387v5.281h-24.387z" style="" fill="#242d3c" data-original="#242d3c"></path><path d="M309.709 255.923h24.397v16.527h-24.397zM340.634 255.923h24.397v16.527h-24.397z" style="" fill="#ffffff" data-original="#ffffff"></path><path d="M290.278 218.701H446.32v22.031H290.278z" style="" fill="#242d3c" data-original="#242d3c"></path><path d="M421.53 227.046h5.358v5.356h-5.358zM410.829 227.046h5.358v5.356h-5.358zM400.102 227.046h5.356v5.356h-5.356z" style="" fill="#ffffff" data-original="#ffffff"></path><path d="M406.17 343.322h40.161v14.456H406.17z" style="" fill="#242d3c" data-original="#242d3c"></path><path d="M446.336 321.638h40.151v14.454h-40.151z" style="" fill="#f15424" data-original="#f15424"></path><path d="M458.368 218.701h32.125v9.285h-32.125zM458.368 237.286h32.125v9.293h-32.125zM458.368 255.846h16.061v9.29h-16.061z" style="" fill="#242d3c" data-original="#242d3c"></path></g></svg>