<svg xmlns="http://www.w3.org/2000/svg" version="1.1" xmlns:xlink="http://www.w3.org/1999/xlink" width="512" height="512" x="0" y="0" viewBox="0 0 2048 2048" style="enable-background:new 0 0 512 512" xml:space="preserve"><g transform="matrix(1.3299999999999998,0,0,1.3299999999999998,-337.91951660156224,-337.7692048645024)"><path fill="#dde2ea" d="M1433.599 1407.419v205.048h-921.6v-205.048z" opacity="1" data-original="#dde2ea"></path><path fill="#3b7ba7" d="M511.999 1586.743v103.556c0 55.907 45.337 101.244 101.244 101.244h719.112c55.907 0 101.244-45.337 101.244-101.244v-103.556z" opacity="1" data-original="#3b7ba7"></path><path fill="#dde2ea" d="M511.999 435.28h921.6v741.326h-921.6z" opacity="1" data-original="#dde2ea"></path><path fill="#22bbee" d="M691.199 946.743h563.2v102.4h-563.2z" opacity="1" data-original="#22bbee"></path><path fill="#ffc306" d="M1535.999 1151.543v281.6h-1126.4v-281.6h1024z" opacity="1" data-original="#ffc306"></path><path fill="#306287" d="M1127.421 1586.743v51.861c0 27.912-22.627 50.539-50.539 50.539H868.716c-27.912 0-50.539-22.627-50.539-50.539v-51.861z" opacity="1" data-original="#306287"></path><path fill="#3b7ba7" d="M1433.599 356.787v103.556h-921.6V356.787c0-55.907 45.337-101.244 101.244-101.244h719.112c55.907 0 101.244 45.337 101.244 101.244z" opacity="1" data-original="#3b7ba7"></path><path fill="#306287" d="M1023.999 382.717h-102.4c-13.682 0-24.774-11.092-24.774-24.774s11.092-24.774 24.774-24.774h102.4c13.682 0 24.774 11.092 24.774 24.774s-11.092 24.774-24.774 24.774z" opacity="1" data-original="#306287"></path><g fill="#f13b49"><path d="m578.034 1290.144 17.691-19.605c9.165-10.159 8.36-25.825-1.798-34.99-10.159-9.165-25.825-8.359-34.99 1.798l-14.271 15.816-14.274-15.819c-9.167-10.157-24.834-10.959-34.99-1.793-10.158 9.167-10.961 24.833-1.793 34.991l17.688 19.603-17.689 19.603c-9.167 10.157-8.363 25.823 1.794 34.99a24.681 24.681 0 0 0 16.59 6.382c6.767 0 13.51-2.757 18.4-8.176l14.273-15.818 14.271 15.816c4.892 5.421 11.634 8.178 18.403 8.178 5.914 0 11.85-2.106 16.587-6.38 10.159-9.165 10.965-24.831 1.799-34.99zM749.286 1290.144l17.691-19.605c9.165-10.159 8.36-25.825-1.798-34.99-10.16-9.165-25.824-8.359-34.99 1.798l-14.271 15.816-14.274-15.819c-9.166-10.157-24.834-10.959-34.99-1.793-10.158 9.167-10.961 24.833-1.793 34.991l17.688 19.603-17.689 19.603c-9.167 10.157-8.363 25.823 1.794 34.99a24.681 24.681 0 0 0 16.59 6.382c6.767 0 13.51-2.757 18.4-8.176l14.273-15.818 14.271 15.816c4.892 5.421 11.634 8.178 18.403 8.178 5.914 0 11.85-2.106 16.587-6.38 10.159-9.165 10.965-24.831 1.799-34.99zM936.429 1235.549c-10.159-9.165-25.825-8.359-34.989 1.798l-14.272 15.816-14.274-15.819c-9.167-10.157-24.832-10.96-34.99-1.792-10.157 9.166-10.96 24.833-1.793 34.99l17.688 19.603-17.688 19.603c-9.167 10.157-8.364 25.823 1.793 34.99a24.682 24.682 0 0 0 16.591 6.382c6.767 0 13.509-2.757 18.399-8.175l14.274-15.819 14.271 15.815c4.892 5.422 11.634 8.179 18.403 8.179 5.914 0 11.85-2.106 16.587-6.38 10.159-9.165 10.965-24.831 1.799-34.989l-17.691-19.606 17.691-19.606c9.166-10.16 8.36-25.825-1.799-34.99zM1107.692 1235.549c-10.158-9.164-25.825-8.359-34.99 1.798l-14.272 15.817-14.275-15.82c-9.166-10.156-24.832-10.962-34.989-1.792-10.158 9.166-10.96 24.833-1.793 34.99l17.688 19.603-17.688 19.603c-9.167 10.157-8.364 25.823 1.793 34.99a24.681 24.681 0 0 0 16.59 6.382c6.767 0 13.509-2.757 18.4-8.175l14.274-15.819 14.271 15.815c4.891 5.422 11.633 8.179 18.402 8.179 5.914 0 11.85-2.106 16.587-6.38 10.159-9.165 10.965-24.831 1.799-34.989l-17.691-19.606 17.691-19.606c9.166-10.16 8.361-25.825-1.797-34.99zM1278.943 1235.549c-10.159-9.164-25.825-8.361-34.99 1.798l-14.272 15.816-14.274-15.818c-9.166-10.157-24.834-10.962-34.99-1.794-10.158 9.167-10.961 24.833-1.794 34.99l17.689 19.603-17.689 19.603c-9.166 10.157-8.364 25.823 1.794 34.99a24.68 24.68 0 0 0 16.59 6.382c6.767 0 13.509-2.757 18.4-8.176l14.274-15.818 14.272 15.816c4.891 5.421 11.633 8.178 18.402 8.178 5.914 0 11.85-2.106 16.588-6.38 10.158-9.165 10.964-24.831 1.798-34.99l-17.691-19.605 17.691-19.605c9.166-10.16 8.361-25.825-1.798-34.99zM1434.302 1290.145l17.691-19.606c9.165-10.159 8.36-25.825-1.798-34.99-10.159-9.164-25.824-8.359-34.99 1.798l-14.272 15.817-14.274-15.82c-9.166-10.156-24.832-10.962-34.99-1.792-10.157 9.166-10.96 24.833-1.792 34.99l17.688 19.602-17.689 19.604c-9.166 10.157-8.364 25.823 1.793 34.99a24.684 24.684 0 0 0 16.591 6.382c6.767 0 13.509-2.757 18.4-8.175l14.275-15.819 14.271 15.815c4.891 5.422 11.633 8.179 18.402 8.179 5.914 0 11.85-2.106 16.587-6.38 10.159-9.165 10.965-24.831 1.799-34.989z" fill="#f13b49" opacity="1" data-original="#f13b49"></path></g><path fill="#a8aeb7" d="M870.399 869.117c-13.682 0-24.774-11.092-24.774-24.774v-128c0-13.682 11.092-24.774 24.774-24.774s24.774 11.092 24.774 24.774v128c0 13.682-11.091 24.774-24.774 24.774zM972.799 869.117c-13.682 0-24.774-11.092-24.774-24.774v-128c0-13.682 11.092-24.774 24.774-24.774s24.774 11.092 24.774 24.774v128c0 13.682-11.092 24.774-24.774 24.774zM1075.198 869.117c-13.682 0-24.774-11.092-24.774-24.774v-128c0-13.682 11.092-24.774 24.774-24.774s24.774 11.092 24.774 24.774v128c.001 13.682-11.091 24.774-24.774 24.774z" opacity="1" data-original="#a8aeb7"></path><path fill="#c4cad8" d="M1156.665 716.343H788.933l183.866-153.6zM1126.399 869.117h-307.2c-13.682 0-24.774-11.092-24.774-24.774s11.092-24.774 24.774-24.774h307.2c13.682 0 24.774 11.092 24.774 24.774s-11.091 24.774-24.774 24.774zM1433.599 588.343c-113.105 0-204.8 91.695-204.8 204.8 0 57.755 23.917 109.935 62.379 147.159h284.841c38.462-37.223 62.379-89.404 62.379-147.159.001-113.105-91.695-204.8-204.799-204.8z" opacity="1" data-original="#c4cad8"></path><path fill="#f13b49" d="M1433.599 844.343c64.444 0 119.618 39.69 142.421 95.959-36.862 35.685-87.081 57.641-142.421 57.641-55.35 0-105.559-21.956-142.421-57.641 22.803-56.269 77.977-95.959 142.421-95.959z" opacity="1" data-original="#f13b49"></path><circle cx="1433.599" cy="793.143" r="51.2" fill="#d6a178" opacity="1" data-original="#d6a178"></circle></g></svg>