<svg xmlns="http://www.w3.org/2000/svg" version="1.1" xmlns:xlink="http://www.w3.org/1999/xlink" width="512" height="512" x="0" y="0" viewBox="0 0 512 512" style="enable-background:new 0 0 512 512" xml:space="preserve" class=""><g><path fill="#7a6e79" d="M322.179 346.337V453.96H189.821V346.337h40.63v35.613c0 14.11 11.438 25.548 25.548 25.548 14.11 0 25.548-11.438 25.548-25.548v-35.613z" opacity="1" data-original="#7a6e79" class=""></path><g fill="#685e67"><path d="M287.73 346.337h34.449V453.96H287.73z" fill="#685e67" opacity="1" data-original="#685e67"></path><path d="M281.548 346.337h40.63v34.49h-40.63zM189.821 346.337h40.63v34.49h-40.63z" fill="#685e67" opacity="1" data-original="#685e67"></path></g><path fill="#f2eff2" d="M512 59.658v248.119H0V59.658c0-11.373 9.22-20.604 20.604-20.604h470.793c11.383 0 20.603 9.231 20.603 20.604z" opacity="1" data-original="#f2eff2"></path><path fill="#e1dde1" d="M512 59.658v248.119h-39.579V59.658c0-11.373-9.22-20.604-20.604-20.604h39.579c11.384 0 20.604 9.231 20.604 20.604z" opacity="1" data-original="#e1dde1"></path><path fill="#918291" d="M512 302.63v33.378c0 11.383-9.22 20.604-20.604 20.604H20.604C9.22 356.611 0 347.391 0 336.008V302.63z" opacity="1" data-original="#918291"></path><path fill="#7a6e79" d="M512 302.626v33.378c0 11.383-9.22 20.604-20.604 20.604h-39.58c11.383 0 20.604-9.22 20.604-20.604v-33.378z" opacity="1" data-original="#7a6e79" class=""></path><path fill="#918291" d="M358.07 448.397v14.247c0 5.686-4.615 10.302-10.302 10.302H164.232c-5.687 0-10.302-4.615-10.302-10.302v-14.247c0-5.687 4.615-10.302 10.302-10.302h183.537c5.686 0 10.301 4.615 10.301 10.302z" opacity="1" data-original="#918291"></path><path fill="#7a6e79" d="M358.07 448.396v14.247c0 5.687-4.615 10.302-10.302 10.302H319.5c5.687 0 10.302-4.615 10.302-10.302v-14.247c0-5.686-4.615-10.302-10.302-10.302h28.268c5.687.001 10.302 4.616 10.302 10.302z" opacity="1" data-original="#7a6e79" class=""></path><path fill="#21c1f8" d="M366.722 259.011 352.971 82.406a10.302 10.302 0 0 0-10.271-9.502H219.642a10.303 10.303 0 0 0-10.271 9.502L195.62 259.011c-.466 5.987 4.266 11.102 10.271 11.102h150.561c6.004-.001 10.736-5.116 10.27-11.102z" opacity="1" data-original="#21c1f8"></path><path fill="#1faaee" d="M342.727 99.805h-52.913a9.532 9.532 0 0 0-9.497 8.717l-12.965 151.245c-.477 5.565 3.911 10.345 9.497 10.345h65.879V99.805z" opacity="1" data-original="#1faaee"></path><path fill="#1faaee" d="M356.45 270.117h-31.626c6.006 0 10.734-5.12 10.271-11.105L321.342 82.408c-.412-5.367-4.893-9.498-10.271-9.498h31.627c5.388 0 9.859 4.131 10.271 9.498l13.753 176.604c.463 5.985-4.266 11.105-10.272 11.105z" opacity="1" data-original="#1faaee"></path><path fill="#0b9ed8" d="M286.288 181.399c-27.148 0-49.234-22.086-49.234-49.233v-30.177a7.726 7.726 0 1 1 15.452 0v30.177c0 18.627 15.154 33.781 33.782 33.781 18.627 0 33.781-15.154 33.781-33.781v-30.177a7.726 7.726 0 1 1 15.452 0v30.177c0 27.147-22.085 49.233-49.233 49.233z" opacity="1" data-original="#0b9ed8" class=""></path><path fill="#fb3a82" d="m303.597 108.522-12.965 151.245c-.477 5.565 3.911 10.345 9.497 10.345h114.116c5.585 0 9.974-4.781 9.497-10.345l-12.965-151.245a9.532 9.532 0 0 0-9.497-8.717h-88.185a9.531 9.531 0 0 0-9.498 8.717z" opacity="1" data-original="#fb3a82" class=""></path><path fill="#fb1466" d="M414.24 270.117h-33.255c5.585 0 9.979-4.785 9.493-10.351l-12.963-151.244a9.532 9.532 0 0 0-9.493-8.721h33.255a9.532 9.532 0 0 1 9.493 8.721l12.972 151.244c.478 5.566-3.916 10.351-9.502 10.351z" opacity="1" data-original="#fb1466"></path><path fill="#e01058" d="M358.362 247.214c-16.797 0-30.462-13.665-30.462-30.462s13.665-30.462 30.462-30.462c7.96 0 15.49 3.051 21.203 8.591a7.727 7.727 0 0 1 .406 10.668l-15.889 17.949a7.727 7.727 0 0 1-11.571-10.242l9.742-11.005a15.076 15.076 0 0 0-3.891-.508c-8.276 0-15.009 6.733-15.009 15.009s6.733 15.01 15.009 15.01c5.747 0 10.903-3.205 13.458-8.364a7.727 7.727 0 0 1 13.849 6.858c-5.18 10.46-15.643 16.958-27.307 16.958zM357.186 173.177c-18.328 0-33.239-14.911-33.239-33.239v-13.15a7.726 7.726 0 1 1 15.452 0v13.15c0 9.807 7.979 17.786 17.787 17.786 9.807 0 17.786-7.979 17.786-17.786v-13.15a7.726 7.726 0 1 1 15.452 0v13.15c.001 18.328-14.91 33.239-33.238 33.239z" opacity="1" data-original="#e01058"></path><circle cx="444.34" cy="184.958" r="36.05" fill="#23f1a8" opacity="1" data-original="#23f1a8"></circle><path fill="#26d192" d="M480.389 184.96c0 19.904-16.141 36.045-36.054 36.045-4.768 0-9.326-.932-13.501-2.622 16.314-2.384 28.847-16.442 28.847-33.423 0-16.99-12.542-31.048-28.865-33.432a35.96 35.96 0 0 1 13.519-2.622c19.913 0 36.054 16.14 36.054 36.054z" opacity="1" data-original="#26d192"></path><path fill="#17998c" d="M441.462 203.921a7.727 7.727 0 0 1-5.464-13.19l5.774-5.773-5.773-5.773a7.726 7.726 0 1 1 10.926-10.927l11.236 11.236a7.722 7.722 0 0 1 .001 10.926l-11.236 11.236a7.697 7.697 0 0 1-5.464 2.265z" opacity="1" data-original="#17998c"></path><circle cx="175.027" cy="184.958" r="36.05" fill="#23f1a8" opacity="1" data-original="#23f1a8"></circle><path fill="#26d192" d="M211.077 184.96c0 19.904-16.141 36.045-36.054 36.045-4.768 0-9.326-.932-13.501-2.622 16.314-2.384 28.847-16.442 28.847-33.423 0-16.99-12.542-31.048-28.865-33.432a35.96 35.96 0 0 1 13.519-2.622c19.913 0 36.054 16.14 36.054 36.054z" opacity="1" data-original="#26d192"></path><path fill="#17998c" d="M177.905 203.921a7.708 7.708 0 0 1-5.464-2.263l-11.236-11.236a7.726 7.726 0 0 1 .001-10.926l11.236-11.236a7.726 7.726 0 1 1 10.926 10.927l-5.773 5.773 5.774 5.773a7.727 7.727 0 0 1 0 10.927 7.71 7.71 0 0 1-5.464 2.261z" opacity="1" data-original="#17998c"></path><path fill="#26d192" d="M69.546 131.173c-17.797 0-32.275-14.478-32.275-32.274s14.478-32.274 32.275-32.274c8.433 0 16.41 3.233 22.464 9.103a7.726 7.726 0 0 1 .405 10.668L75.26 105.774a7.726 7.726 0 1 1-11.569-10.242l11.158-12.604a16.867 16.867 0 0 0-5.302-.851c-9.276 0-16.822 7.546-16.822 16.821s7.546 16.821 16.822 16.821c6.441 0 12.22-3.592 15.083-9.373a7.723 7.723 0 0 1 10.352-3.494 7.726 7.726 0 0 1 3.495 10.353c-5.489 11.083-16.575 17.968-28.931 17.968z" opacity="1" data-original="#26d192"></path><path fill="#cecece" d="M64.943 172.177H44.998a7.726 7.726 0 1 1 0-15.452h19.945a7.726 7.726 0 1 1 0 15.452zM105.12 205.561H44.998a7.726 7.726 0 1 1 0-15.452h60.122a7.726 7.726 0 1 1 0 15.452zM105.12 229.674H44.998a7.726 7.726 0 1 1 0-15.452h60.122a7.726 7.726 0 1 1 0 15.452z" opacity="1" data-original="#cecece"></path><path fill="#26d192" d="M136.506 268.571H44.998a7.726 7.726 0 1 1 0-15.452h91.508c4.268 0 7.726 3.459 7.726 7.726s-3.458 7.726-7.726 7.726z" opacity="1" data-original="#26d192"></path></g></svg>