<svg xmlns="http://www.w3.org/2000/svg" version="1.1" xmlns:xlink="http://www.w3.org/1999/xlink" width="512" height="512" x="0" y="0" viewBox="0 0 64 64" style="enable-background:new 0 0 512 512" xml:space="preserve" class=""><g><path fill="#4cb274" d="M20.1 57.7c-.4.8-1.4 1.1-2.2.6C-1 46.6-.8 18.2 18.4 6.8c.5-.3 1.2-.1 1.5.4.3.5.1 1.1-.4 1.4-17.9 10.7-17.7 36.3 0 47.1.7.4.9 1.3.6 2z" opacity="1" data-original="#4cb274"></path><g fill="#79dca0"><path d="M19.4 13.4c-1.4 1.1-2.9 1.7-4.4 2s-2.9.1-4-.7c2.5-3.3 6.8-3.6 8.4-1.3zM13.3 5.4C11.3 7 10 9 9.7 10.7c-.4 1.8.1 3.2 1.2 4.1 2.4-3.2 4-7.1 2.4-9.4zM14.6 18.2c-1 1.3-2.2 2.4-3.5 3s-2.8.9-4 .4c1.4-3.9 5.3-5.1 7.5-3.4zM6.5 12.2c-1.4 1.9-2 4.1-1.8 5.8s1 3 2.3 3.5c1.4-3.5 1.7-7.5-.5-9.3zM11.5 23.9c-.6 1.5-1.5 2.8-2.6 3.7S6.5 29.2 5.1 29c.5-4 3.8-6.2 6.4-5.1z" fill="#79dca0" opacity="1" data-original="#79dca0" class=""></path><path d="M2.1 20.3c-.8 2.2-.8 4.4-.2 6s1.8 2.6 3.2 2.7c.4-3.8-.4-7.6-3-8.7zM10 30.1c-.2 1.6-.7 3.1-1.5 4.3s-1.9 2.1-3.3 2.3c-.6-4 2.1-7 4.8-6.6zM0 29.1c-.2 2.3.4 4.4 1.4 5.8s2.4 2 3.8 1.8c-.6-3.8-2.4-7.2-5.2-7.6zM10.2 36.5c.3 1.6.1 3.2-.3 4.5-.5 1.4-1.3 2.6-2.6 3.2-1.6-3.8.2-7.4 2.9-7.7z" fill="#79dca0" opacity="1" data-original="#79dca0" class=""></path><path d="M.4 38.1c.4 2.3 1.5 4.2 2.9 5.2 1.4 1.1 2.9 1.3 4.1.8-1.6-3.5-4.3-6.3-7-6zM12.1 42.6c.7 1.5 1 3 .9 4.5s-.5 2.9-1.6 3.8c-2.6-3.3-1.8-7.3.7-8.3zM3 46.8c1 2.1 2.6 3.7 4.2 4.4s3.2.6 4.2-.3c-2.5-3.1-5.8-5.1-8.4-4.1zM15.7 48c1.1 1.3 1.9 2.7 2.3 4.2s.4 3-.3 4.1c-3.8-2.4-4.2-6.6-2-8.3zM8.1 54.6c1.6 1.8 3.7 2.9 5.5 3.2s3.3-.3 4.1-1.4c-3.6-2.4-7.4-3.5-9.6-1.8z" fill="#79dca0" opacity="1" data-original="#79dca0" class=""></path></g><path fill="#4cb274" d="M43.9 57.7c.4.8 1.4 1.1 2.2.6C65 46.6 64.8 18.2 45.6 6.8c-.5-.3-1.2-.1-1.5.4-.3.5-.1 1.1.4 1.4 17.9 10.7 17.6 36.2-.1 47.1-.6.4-.8 1.3-.5 2z" opacity="1" data-original="#4cb274"></path><path fill="#79dca0" d="M44.6 13.4c1.4 1.1 2.9 1.7 4.4 2s2.9.1 4-.7c-2.5-3.3-6.8-3.6-8.4-1.3zM50.7 5.4c2 1.6 3.3 3.6 3.6 5.3.4 1.8-.1 3.2-1.2 4.1-2.4-3.2-4-7.1-2.4-9.4zM49.4 18.2c1 1.3 2.2 2.4 3.5 3s2.8.9 4 .4c-1.4-3.9-5.3-5.1-7.5-3.4zM57.5 12.2c1.4 1.9 2 4.1 1.8 5.8s-1 3-2.3 3.5c-1.4-3.5-1.7-7.5.5-9.3zM52.5 23.9c.6 1.5 1.5 2.8 2.6 3.7s2.4 1.6 3.8 1.4c-.5-4-3.8-6.2-6.4-5.1z" opacity="1" data-original="#79dca0" class=""></path><path fill="#79dca0" d="M61.9 20.3c.8 2.2.8 4.4.2 6s-1.8 2.6-3.2 2.7c-.4-3.8.4-7.6 3-8.7zM54 30.1c.2 1.6.7 3.1 1.5 4.3s1.9 2.1 3.3 2.3c.6-4-2.1-7-4.8-6.6zM64 29.1c.2 2.3-.4 4.4-1.4 5.8s-2.4 2-3.8 1.8c.6-3.8 2.4-7.2 5.2-7.6zM53.8 36.5c-.3 1.6-.1 3.2.3 4.5.5 1.4 1.3 2.6 2.6 3.2 1.6-3.8-.2-7.4-2.9-7.7z" opacity="1" data-original="#79dca0" class=""></path><path fill="#79dca0" d="M63.6 38.1c-.4 2.3-1.5 4.2-2.9 5.2-1.4 1.1-2.9 1.3-4.1.8 1.6-3.5 4.3-6.3 7-6zM51.9 42.6c-.7 1.5-1 3-.9 4.5s.5 2.9 1.6 3.8c2.6-3.3 1.8-7.3-.7-8.3z" opacity="1" data-original="#79dca0" class=""></path><path fill="#79dca0" d="M61 46.8c-1 2.1-2.6 3.7-4.2 4.4s-3.2.6-4.2-.3c2.5-3.1 5.8-5.1 8.4-4.1zM48.3 48c-1.1 1.3-1.9 2.7-2.3 4.2s-.4 3 .3 4.1c3.8-2.4 4.2-6.6 2-8.3zM55.9 54.6c-1.6 1.8-3.7 2.9-5.5 3.2s-3.3-.3-4.1-1.4c3.6-2.4 7.4-3.5 9.6-1.8z" opacity="1" data-original="#79dca0" class=""></path><path fill="#f7ca3c" d="m41.2 36.8 2.1 12.6L32 43.5l-11.3 5.9 2.1-12.6-9.1-8.9L26.3 26 32 14.6 37.7 26l12.6 1.9z" opacity="1" data-original="#f7ca3c"></path><path fill="#f2bd27" d="M32 14.6v17.7l5.7-6.3z" opacity="1" data-original="#f2bd27"></path><path fill="#f2bd27" d="m50.3 27.9-9.1 8.9-9.2-4.5zM13.7 27.9l9.1 8.9 9.2-4.5z" opacity="1" data-original="#f2bd27"></path><path fill="#f2bd27" d="M32 32.3v11.2l11.3 5.9zM32 32.3v11.2l-11.3 5.9z" opacity="1" data-original="#f2bd27"></path></g></svg>