<svg xmlns="http://www.w3.org/2000/svg" version="1.1" xmlns:xlink="http://www.w3.org/1999/xlink" width="512" height="512" x="0" y="0" viewBox="0 0 64 64" style="enable-background:new 0 0 512 512" xml:space="preserve" class=""><g transform="matrix(1.1399999999999992,0,0,1.1399999999999992,-4.480180244445776,-4.479999999999976)"><rect width="10.999" height="7" x="26.505" y="46.5" rx="1" fill="#ffffff" opacity="1" data-original="#000000" class=""></rect><path d="M59.452 22.11a.992.992 0 0 0-1.34.44L54.382 30H9.627l-3.73-7.45c-.57-1.143-2.367-.304-1.78.9l3.89 7.79V57c0 1.65 1.35 3 3 3h41.997c1.65 0 3-1.35 3-3V31.24l3.89-7.79c.25-.5.05-1.1-.44-1.34zM39.504 52.5c0 1.65-1.35 3-3 3h-9c-1.65 0-2.999-1.35-2.999-3v-5c0-1.3.84-2.4 2-2.82V40c.26-7.276 10.737-7.279 10.999 0-.028 1.317-1.974 1.311-2 0-.146-4.623-6.852-4.627-7 0v4.5h8c1.65 0 3 1.35 3 3zM28.885 11.71c.772-.835 1.718-1.78 2.95-1.71h19.168V8c0-2.21-1.79-4-4-4H17.006c-2.21 0-4 1.79-4 4v4h15.169c.27 0 .52-.1.71-.29zM18.505 9c-1.313-.025-1.313-1.975 0-2 1.314.025 1.314 1.975 0 2zm4 0c-1.313-.025-1.313-1.975 0-2 1.314.025 1.314 1.975 0 2zm4 0c-1.314-.025-1.314-1.975 0-2 1.313.025 1.313 1.975 0 2z" fill="#ffffff" opacity="1" data-original="#000000" class=""></path><path d="M51.003 12H31.834c-.27 0-.52.1-.71.29-.77.836-1.719 1.78-2.95 1.71H13.007v14h37.997zM27.715 22.79c.919.935-.48 2.333-1.42 1.42l-2.5-2.5c-.39-.39-.39-1.03 0-1.42l2.5-2.5c.934-.92 2.341.485 1.42 1.42l-1.8 1.79 1.8 1.79zm6.43-3.84-2.5 5c-.585 1.165-2.367.275-1.78-.9l2.5-5c.592-1.153 2.357-.295 1.78.9zm6.069 2.76-2.5 2.5c-.2.19-.45.29-.71.29-.861.03-1.346-1.112-.71-1.71l1.8-1.79-1.8-1.79c-.92-.932.485-2.342 1.42-1.42l2.5 2.5c.39.39.39 1.03 0 1.42z" fill="#ffffff" opacity="1" data-original="#000000" class=""></path></g></svg>