<svg xmlns="http://www.w3.org/2000/svg" version="1.1" xmlns:xlink="http://www.w3.org/1999/xlink" width="512" height="512" x="0" y="0" viewBox="0 0 60 58" style="enable-background:new 0 0 512 512" xml:space="preserve" class=""><g><g fill="none" fill-rule="nonzero" transform="translate(-1)"><path fill="#b0d3f0" d="M51 34V3a3 3 0 0 0-3-3H14a3 3 0 0 0-3 3v31z" opacity="1" data-original="#b0d3f0"></path><path fill="#4482c3" d="M51 3v5H11V3a3 3 0 0 1 3-3h34a3 3 0 0 1 3 3z" opacity="1" data-original="#4482c3"></path><path fill="#b19046" d="M11 36.5a.993.993 0 0 1-.759-.35l-9-10.5a1 1 0 1 1 1.518-1.3l9 10.5A1 1 0 0 1 11 36.5zM51 36.5a1 1 0 0 1-.759-1.65l9-10.5a1 1 0 1 1 1.518 1.3l-9 10.5a.993.993 0 0 1-.759.35z" opacity="1" data-original="#b19046"></path><path fill="#e4c05c" d="M9 32h44a1 1 0 0 1 1 1v22a3 3 0 0 1-3 3H11a3 3 0 0 1-3-3V33a1 1 0 0 1 1-1z" opacity="1" data-original="#e4c05c"></path><path fill="#ffffff" d="M47 5h-7a1 1 0 0 1 0-2h7a1 1 0 0 1 0 2z" opacity="1" data-original="#ffffff"></path><path fill="#fb7b76" d="M16 13h-1a1 1 0 0 1 0-2h1a1 1 0 0 1 0 2z" opacity="1" data-original="#fb7b76"></path><g fill="#90bae1"><path d="M30 13H20a1 1 0 0 1 0-2h10a1 1 0 0 1 0 2zM30 17H20a1 1 0 0 1 0-2h10a1 1 0 0 1 0 2zM30 25H20a1 1 0 0 1 0-2h10a1 1 0 0 1 0 2zM30 29H20a1 1 0 0 1 0-2h10a1 1 0 0 1 0 2zM41 25h-7a1 1 0 0 1 0-2h7a1 1 0 0 1 0 2zM25 21h-5a1 1 0 0 1 0-2h5a1 1 0 0 1 0 2z" fill="#90bae1" opacity="1" data-original="#90bae1" class=""></path></g><path fill="#fb7b76" d="M16 17h-1a1 1 0 0 1 0-2h1a1 1 0 0 1 0 2z" opacity="1" data-original="#fb7b76"></path><path fill="#90bae1" d="M36 17h-2a1 1 0 0 1 0-2h2a1 1 0 0 1 0 2zM47 25h-2a1 1 0 0 1 0-2h2a1 1 0 0 1 0 2zM46 17h-6a1 1 0 0 1 0-2h6a1 1 0 0 1 0 2z" opacity="1" data-original="#90bae1" class=""></path><path fill="#fb7b76" d="M16 21h-1a1 1 0 0 1 0-2h1a1 1 0 0 1 0 2zM16 25h-1a1 1 0 0 1 0-2h1a1 1 0 0 1 0 2zM16 29h-1a1 1 0 0 1 0-2h1a1 1 0 0 1 0 2z" opacity="1" data-original="#fb7b76"></path><circle cx="15" cy="4" r="1" fill="#f3d55b" opacity="1" data-original="#f3d55b"></circle><circle cx="19" cy="4" r="1" fill="#ff5364" opacity="1" data-original="#ff5364"></circle><circle cx="23" cy="4" r="1" fill="#65ddb9" opacity="1" data-original="#65ddb9"></circle><path fill="#e57e25" d="M28 44a1 1 0 0 1-1-1v-4a4 4 0 1 1 8 0 1 1 0 0 1-2 0 2 2 0 1 0-4 0v4a1 1 0 0 1-1 1z" opacity="1" data-original="#e57e25"></path><rect width="12" height="11" x="25" y="43" fill="#b19046" rx="2" opacity="1" data-original="#b19046"></rect></g></g></svg>