<svg xmlns="http://www.w3.org/2000/svg" version="1.1" xmlns:xlink="http://www.w3.org/1999/xlink" width="512" height="512" x="0" y="0" viewBox="0 0 1707 1707" style="enable-background:new 0 0 512 512" xml:space="preserve" fill-rule="evenodd" class=""><g><path fill-rule="nonzero" d="M835 1323c-189-485 29-618 94-452 30 77 30 228-57 452-7 17-31 17-37 0z" fill="#ffffff" opacity="1" data-original="#000000" class=""></path><path d="M730 1132C585 913 545 632 615 379h477c69 253 30 534-115 753-2-1-4-1-6-1 71-356-119-432-204-321-63 81-52 223-32 321-2 0-3 1-5 1zm123-394c-90 0-163-73-163-163s73-164 163-164 164 74 164 164-74 163-164 163zm0-287c-68 0-123 56-123 124s55 123 123 123 124-55 124-123-56-124-124-124zM627 339c2-8 5-16 8-23h437c3 7 5 15 8 23zm23-63c20-49 44-96 73-140h261c29 44 53 91 73 140zm99-179c90-130 119-130 209 0z" fill="#ffffff" opacity="1" data-original="#000000" class=""></path><path d="M476 1302c-13 0-23-12-19-25 45-169 45-255 168-397 47-55 119 248 118 248-143 34-251 166-252 167-4 5-9 7-15 7zM1231 1302c-29 0-82-121-268-174 0 0 114-254 119-248 122 141 123 228 168 397 4 13-6 25-19 25z" fill="#ffffff" opacity="1" data-original="#000000" class=""></path><path d="M1420 1706H287c-118 0-214-96-214-214 0-222 298-296 403-101 68 2 147 73 163 143 98-47 89-210 83-343 66 97 35 44 75 146 20 51 92 51 112 0 40-103 9-49 76-146-6 133-15 296 83 343 12-52 59-105 110-130 24 7 65 18 66 18 67 12 72 69 100 48 32-24-39-77-93-87 0 0-6-2-13-4 110-180 396-104 396 113 0 118-96 214-214 214z" fill="#ffffff" opacity="1" data-original="#000000" class=""></path></g></svg>