<svg xmlns="http://www.w3.org/2000/svg" version="1.1" xmlns:xlink="http://www.w3.org/1999/xlink" width="512" height="512" x="0" y="0" viewBox="0 0 504 504" style="enable-background:new 0 0 512 512" xml:space="preserve" class=""><g transform="matrix(1,0,0,1,0,25)"><path fill="#e6e9ed" d="M24 39.922h456V287.84H24zm0 0" opacity="1" data-original="#e6e9ed" class=""></path><path fill="#ccd1d9" d="M24 23.84h456v16.082H24zm0 0" opacity="1" data-original="#ccd1d9" class=""></path><path fill="#a0d468" d="M48 63.922h408v64H48zm0 0" opacity="1" data-original="#a0d468" class=""></path><path fill="#ccd1d9" d="M264 339.84c0 6.629-5.371 12-12 12s-12-5.371-12-12 5.371-12 12-12 12 5.37 12 12zm0 0" opacity="1" data-original="#ccd1d9" class=""></path><path fill="#ccd1d9" d="M504 344v15.84c0 13.512-10.488 24-24 24H24c-13.512 0-24-10.488-24-24V344c0 13.2 10.8 24 24 24h456c13.2 0 24-10.8 24-24zM303.922 383.84l16 72H184.078l16-72zm0 0" opacity="1" data-original="#ccd1d9" class=""></path><path fill="#e6e9ed" d="M252 311.84H0V344c0 13.2 10.8 24 24 24h456c13.2 0 24-10.8 24-24v-32.16zm0 40c-6.64 0-12-5.36-12-12s5.36-12 12-12 12 5.36 12 12-5.36 12-12 12zm0 0" opacity="1" data-original="#e6e9ed" class=""></path><path fill="#434a54" d="M504 24v287.84H0V24C0 10.816 10.8 0 24 0h456c13.2 0 24 10.809 24 24zm-24 263.84v-264H24v264zm0 0" opacity="1" data-original="#434a54" class=""></path><path fill="#aab2bd" d="m305.695 391.84-1.773-8H200.078l-1.773 8zm0 0" opacity="1" data-original="#aab2bd"></path><path fill="#5d9cec" d="M88 175.922c-8.871 0-16 7.125-16 16 0 8.871 7.129 16 16 16s16-7.129 16-16c0-8.875-7.129-16-16-16zm-40-24h192v112h-8l-52-80-36.23 55.687L128 216l-32 47.922H48zm0 0" opacity="1" data-original="#5d9cec"></path><path fill="#ffce54" d="M88 175.922c8.871 0 16 7.125 16 16 0 8.871-7.129 16-16 16s-16-7.129-16-16c0-8.875 7.129-16 16-16zm0 0" opacity="1" data-original="#ffce54" class=""></path><path fill="#f5f7fa" d="M143.77 239.61 128 263.921H96L128 216zm0 0" opacity="1" data-original="#f5f7fa" class=""></path><path fill="#ffffff" d="m180 183.922 52 80H128l15.77-24.313zm0 0" opacity="1" data-original="#ffffff" class=""></path><path fill="#e6e9ed" d="M36.047 35.922c-2.207 0-4.04-1.785-4.04-4 0-2.203 1.755-4 3.954-4h.086c2.2 0 4 1.797 4 4 0 2.215-1.8 4-4 4zM52.047 35.922c-2.207 0-4.04-1.785-4.04-4 0-2.203 1.755-4 3.954-4h.086c2.2 0 4 1.797 4 4 0 2.215-1.8 4-4 4zM68.047 35.922c-2.207 0-4.04-1.785-4.04-4 0-2.203 1.755-4 3.954-4h.086c2.2 0 4 1.797 4 4 0 2.215-1.8 4-4 4zM332 459.77H172c-2.207 0-4-1.786-4-4 0-2.204 1.793-4 4-4h160c2.207 0 4 1.902 4 4.125 0 2.203-1.793 3.875-4 3.875zm0 0" opacity="1" data-original="#e6e9ed" class=""></path><g fill="#ccd1d9"><path d="M343.887 187.922H264c-2.207 0-4-1.785-4-4 0-2.203 1.793-4 4-4h79.887c2.21 0 4 1.797 4 4 0 2.215-1.782 4-4 4zM456 163.922H264c-2.207 0-4-1.785-4-4 0-2.203 1.793-4 4-4h192c2.207 0 4 1.797 4 4 0 2.215-1.793 4-4 4zM343.984 211.922H264c-2.207 0-4-1.785-4-4 0-2.203 1.793-4 4-4h79.984c2.207 0 4 1.797 4 4 0 2.215-1.793 4-4 4zM343.992 235.922H264c-2.207 0-4-1.785-4-4 0-2.203 1.793-4 4-4h79.992c2.207 0 4 1.797 4 4 0 2.215-1.793 4-4 4zM343.992 259.922H264c-2.207 0-4-1.785-4-4 0-2.203 1.793-4 4-4h79.992c2.207 0 4 1.797 4 4 0 2.215-1.793 4-4 4zm0 0" fill="#ccd1d9" opacity="1" data-original="#ccd1d9" class=""></path></g><path fill="#8cc152" d="M407.984 99.922H96.016c-2.207 0-4-1.785-4-4 0-2.203 1.793-4 4-4h311.968c2.207 0 4 1.797 4 4 0 2.215-1.793 4-4 4zm0 0" opacity="1" data-original="#8cc152" class=""></path><path fill="#434a54" d="M476 459.902h-88c-15.352 0-27.902-12.488-28-27.832v-192.3c0-15.442 12.559-44.016 28-44.016h88c15.441 0 28 28.574 28 44.016v192.14c-.176 15.586-12.742 27.992-28 27.992zm0 0" opacity="1" data-original="#434a54" class=""></path><path fill="#e6e9ed" d="M388 183.734h88c13.2 0 24 10.801 24 24V416.207c-.16 13.05-10.871 23.688-24 23.688h-88c-13.129 0-23.922-10.72-24-23.84v-208.32c0-13.208 10.8-24 24-24zm52.23 240.313c0-4.406-3.59-8-8-8-4.39 0-8 3.594-8 8 0 4.394 3.61 8 8 8 4.41 0 8-3.606 8-8zm0 0" opacity="1" data-original="#e6e9ed" class=""></path><path fill="#f5f7fa" d="m428 335.77 11.77 17.824-3.77 6.328h-24zm0 0" opacity="1" data-original="#f5f7fa" class=""></path><path fill="#ffffff" d="m460 319.77 24 40.152h-48l3.77-6.328zm0 0" opacity="1" data-original="#ffffff" class=""></path><path fill="#5d9cec" d="m428 335.77-16 24.16h-32v-64.02h104v64.02l-24-40.16-20.23 33.832zm0 0" opacity="1" data-original="#5d9cec"></path><path fill="#a0d468" d="M380 231.902h104v48H380zm0 0" opacity="1" data-original="#a0d468" class=""></path><path fill="#656d78" d="M504 215.887v-8.016c-.098-15.344-12.648-27.832-28-27.832h-88c-15.2 0-27.719 12.328-27.984 27.84H360v8h144zm0 0" opacity="1" data-original="#656d78" class=""></path><path fill="#656d78" d="M476 443.887h-88c-15.352 0-27.902-12.489-28-27.832v-208.32c0-15.438 12.559-28 28-28h88c15.441 0 28 12.562 28 28v208.16c-.176 15.585-12.742 27.992-28 27.992zm-88-256.153c-11.031 0-20 8.97-20 20v208.16c.063 11.083 9.04 20 20 20h88c10.895 0 19.863-8.855 20-19.734V207.734c0-11.03-8.969-20-20-20zm0 0" opacity="1" data-original="#656d78" class=""></path><path fill="#434a54" d="M444 203.887h-24c-2.207 0-4-1.782-4-4 0-2.2 1.793-4 4-4h24c2.207 0 4 1.8 4 4 0 2.226-1.793 4-4 4zm0 0" opacity="1" data-original="#434a54" class=""></path><path fill="#8cc152" d="M468.23 251.902h-72c-2.207 0-4-1.78-4-4 0-2.199 1.793-4 4-4h72c2.211 0 4 1.801 4 4 0 2.22-1.78 4-4 4zM452 267.902h-39.512c-2.207 0-4-1.78-4-4 0-2.199 1.793-4 4-4H452c2.207 0 4 1.801 4 4 0 2.22-1.793 4-4 4zm0 0" opacity="1" data-original="#8cc152" class=""></path><path fill="#ccd1d9" d="M480.23 379.922h-95.992c-2.207 0-4-1.8-4-4 0-2.219 1.793-4 4-4h95.992c2.211 0 4 1.781 4 4a4 4 0 0 1-4 4zM480.23 395.922h-95.992c-2.207 0-4-1.8-4-4 0-2.219 1.793-4 4-4h95.992c2.211 0 4 1.781 4 4a4 4 0 0 1-4 4zm0 0" opacity="1" data-original="#ccd1d9" class=""></path><path fill="#656d78" d="M360 408.047v8.015c.098 15.344 12.648 27.833 28 27.833h88c15.2 0 27.719-12.329 27.984-27.84H504v-8H360zm0 0" opacity="1" data-original="#656d78" class=""></path><path fill="#aab2bd" d="M432.23 416.047c4.41 0 8 3.594 8 8 0 4.394-3.59 8-8 8-4.39 0-8-3.606-8-8 0-4.406 3.61-8 8-8zm0 0" opacity="1" data-original="#aab2bd"></path><path fill="#ffce54" d="M412.23 319.902c0 4.41-3.59 8-8 8-4.39 0-8-3.59-8-8 0-4.39 3.61-8 8-8 4.41 0 8 3.61 8 8zm0 0" opacity="1" data-original="#ffce54" class=""></path></g></svg>