<svg xmlns="http://www.w3.org/2000/svg" version="1.1" xmlns:xlink="http://www.w3.org/1999/xlink" width="512" height="512" x="0" y="0" viewBox="0 0 60 60" style="enable-background:new 0 0 512 512" xml:space="preserve" class=""><g transform="matrix(1.03,0,0,1.03,-0.9000000303983668,-0.9000197267532322)"><path fill="#ffbc00" d="M32.018 3.268 39.76 19.13l17.311 2.544c1.846.271 2.583 2.565 1.247 3.881L45.791 37.902l2.957 17.434c.315 1.859-1.614 3.276-3.265 2.399l-15.484-8.231-15.484 8.231c-1.651.878-3.58-.54-3.265-2.399l2.957-17.434L1.682 25.555c-1.336-1.316-.599-3.61 1.247-3.881L20.24 19.13l7.742-15.862c.825-1.691 3.21-1.691 4.036 0z" opacity="1" data-original="#ffbc00" class=""></path><path fill="#f9ad03" d="M58.32 25.55 45.79 37.9l2.96 17.44c.31 1.85-1.62 3.27-3.27 2.39L30 49.5l-15.48 8.23c-1.65.88-3.58-.54-3.27-2.39l1.56-9.17c13.99-5.29 26.6-14.24 36.23-25.68l8.03 1.18c1.85.27 2.58 2.57 1.25 3.88z" opacity="1" data-original="#f9ad03"></path></g></svg>