<svg xmlns="http://www.w3.org/2000/svg" version="1.1" xmlns:xlink="http://www.w3.org/1999/xlink" width="512" height="512" x="0" y="0" viewBox="0 0 64 64" style="enable-background:new 0 0 512 512" xml:space="preserve"><g transform="matrix(1.1800000000000002,0,0,1.1800000000000002,-5.3999999999999915,-5.760000000000005)"><path d="M26 13H8a3 3 0 0 0-3 3v13a4 4 0 0 1 4-4h17a3 3 0 0 0 3-3v-6a3 3 0 0 0-3-3Zm-14.88 9c-1.66 0-2.41-.84-2.41-1.46a.53.53 0 0 1 .56-.54c.71 0 .52 1 1.85 1 .68 0 1.06-.38 1.06-.76s-.11-.49-.56-.6l-1.48-.38c-1.19-.3-1.41-1-1.41-1.57C8.73 16.44 9.91 16 11 16s2.23.57 2.23 1.34a.54.54 0 0 1-.6.52c-.61 0-.5-.85-1.72-.85-.61 0-.95.28-.95.68s.48.52.9.62l1.1.25c1.19.27 1.5 1 1.5 1.65.03 1-.75 1.79-2.34 1.79Zm7.75-5-1.66 4.5c-.14.37-.39.45-.8.45s-.66-.08-.8-.45L14 17a1 1 0 0 1-.08-.39c0-.44.33-.58.66-.58s.54.18.66.58l1.19 3.91 1.23-3.91c.12-.4.31-.58.62-.58s.66.14.66.58a1 1 0 0 1-.07.39Zm5.91 4.55a.44.44 0 0 1-.45.44c-.38 0-.48-.23-.56-.74a2 2 0 0 1-1.71.78c-2 0-2.81-1.4-2.81-3a2.78 2.78 0 0 1 3-3c1.45 0 2.23.87 2.23 1.38a.55.55 0 0 1-.62.58c-.64 0-.4-.91-1.68-.91-.91 0-1.62.59-1.62 2 0 1.14.56 1.92 1.63 1.92a1.32 1.32 0 0 0 1.37-1.18h-.85c-.28 0-.6-.1-.6-.5a.46.46 0 0 1 .52-.5h1.61c.38 0 .54.19.54.55ZM45 28a1 1 0 1 1 1 1 1 1 0 0 1-1-1ZM27 52a1 1 0 1 1-1-1 1 1 0 0 1 1 1Zm22-12a1 1 0 1 1-1-1 1 1 0 0 1 1 1Zm5.41-26.59-7.82-7.82a1.81 1.81 0 0 0-.59-.4V13a1 1 0 0 0 1 1h2a1 1 0 0 1 0 2h-2a3 3 0 0 1-3-3V5H21a4 4 0 0 0-4 4v2h9a5 5 0 0 1 5 5v6a5 5 0 0 1-5 5h-9v28a4 4 0 0 0 4 4h30a4 4 0 0 0 4-4V14.83a2 2 0 0 0-.59-1.42ZM34 15h7a1 1 0 0 1 0 2h-7a1 1 0 0 1 0-2Zm0 6h12a1 1 0 0 1 0 2H34a1 1 0 0 1 0-2Zm14 22a3 3 0 0 1-2.82-2H39a2 2 0 0 1-2 2h-2a2 2 0 0 1-1.92-1.48 8.6 8.6 0 0 0-5.62 7.88 3 3 0 1 1-2-.35 10.58 10.58 0 0 1 4.36-8h-3a3 3 0 1 1 0-2H33a2 2 0 0 1 2-2h2a2 2 0 0 1 1.92 1.48 8.6 8.6 0 0 0 5.62-7.88 3 3 0 1 1 2 .35 10.58 10.58 0 0 1-4.38 8h3A3 3 0 1 1 48 43Zm-11-4v2h-2v-2Zm-12 1a1 1 0 1 1-1-1 1 1 0 0 1 1 1Zm-10-7H9.91A3 3 0 0 1 7 30a3 3 0 0 1 2.92-3H15" data-name="Notif Muted" fill="#ffffff" opacity="1" data-original="#000000"></path></g></svg>