<svg xmlns="http://www.w3.org/2000/svg" version="1.1" xmlns:xlink="http://www.w3.org/1999/xlink" width="512" height="512" x="0" y="0" viewBox="0 0 50 50" style="enable-background:new 0 0 512 512" xml:space="preserve" class=""><g transform="matrix(1.06,0,0,1.06,-1.5000001144409154,-1.5002999782562298)"><path fill="#559aff" d="M12.87 41.05c-.12.62-.37 1.19-.71 1.7-.46-.39-1.07-.43-1.4-.09-.35.35-.3.95.09 1.41-.51.33-1.08.58-1.7.7-.05-.6-.45-1.06-.93-1.06-.49 0-.89.46-.93 1.06-.62-.12-1.19-.37-1.7-.7.39-.47.44-1.07.09-1.42-.34-.34-.94-.29-1.4.09-.34-.51-.59-1.08-.71-1.7.6-.05 1.06-.45 1.06-.93 0-.49-.46-.89-1.06-.93.12-.62.37-1.19.71-1.7.47.39 1.07.43 1.4.09.35-.35.3-.95-.09-1.41.51-.34 1.08-.59 1.7-.71.05.61.45 1.07.93 1.07s.88-.46.93-1.07c.62.12 1.19.37 1.7.71-.39.46-.43 1.07-.09 1.41s.95.29 1.4-.09c.34.51.59 1.08.71 1.7-.6.05-1.06.45-1.06.93 0 .49.46.88 1.06.94z" opacity="1" data-original="#559aff"></path><circle cx="8.22" cy="40.11" r="1.63" fill="#ffffff" opacity="1" data-original="#ffffff"></circle><path fill="#ddedeb" d="M43.45 32.1H9.9c-1.39 0-2.52-1.13-2.52-2.52V7.76c0-1.39 1.13-2.52 2.52-2.52h33.55c1.39 0 2.52 1.13 2.52 2.52v21.81c0 1.4-1.13 2.53-2.52 2.53z" opacity="1" data-original="#ddedeb"></path><circle cx="10.59" cy="8.46" r="1.13" fill="#fa4968" opacity="1" data-original="#fa4968"></circle><circle cx="14.54" cy="8.46" r="1.13" fill="#ffb95c" opacity="1" data-original="#ffb95c"></circle><circle cx="18.48" cy="8.46" r="1.13" fill="#559aff" opacity="1" data-original="#559aff"></circle><path fill="#a7cec8" d="M41.99 7.33H23.23c-.62 0-1.13.51-1.13 1.13 0 .62.51 1.13 1.13 1.13h18.76a1.129 1.129 0 1 0 0-2.26zM18.6 33.29H3.79A2.29 2.29 0 0 1 1.5 31V16.28a2.29 2.29 0 0 1 2.29-2.29H18.6a2.29 2.29 0 0 1 2.29 2.29V31c0 1.26-1.03 2.29-2.29 2.29z" opacity="1" data-original="#a7cec8"></path><circle cx="13.37" cy="19.36" r="1.6" fill="#e5e5e5" opacity="1" data-original="#e5e5e5" class=""></circle><path fill="#616b77" d="m11.6 26.38-4.23 6.91H3.79A2.29 2.29 0 0 1 1.5 31v-3.56l3.91-6.36c.66-1.07 2.21-1.08 2.89-.02l3.26 5.15z" opacity="1" data-original="#616b77" class=""></path><path fill="#525f70" d="M20.6 32.1a2.27 2.27 0 0 1-2 1.19H7.37l5.13-8.38c.63-1.04 2.11-1.1 2.82-.11z" opacity="1" data-original="#525f70"></path><path fill="#f4f4f4" d="M47.01 26.78H26.82c-.82 0-1.49-.67-1.49-1.49V14.82c0-.82.67-1.49 1.49-1.49h20.19c.82 0 1.49.67 1.49 1.49V25.3c0 .82-.67 1.48-1.49 1.48z" opacity="1" data-original="#f4f4f4"></path><path fill="#fa4968" d="M28.12 22.44h2.2v2.39h-2.2z" opacity="1" data-original="#fa4968"></path><path fill="#ffb95c" d="M33.25 21.15h2.2v3.68h-2.2z" opacity="1" data-original="#ffb95c"></path><path fill="#6cd8d5" d="M38.38 23.12h2.2v1.71h-2.2z" opacity="1" data-original="#6cd8d5"></path><path fill="#c6cc4a" d="M43.52 19.99h2.2v4.84h-2.2z" opacity="1" data-original="#c6cc4a"></path><path fill="#525f70" d="m40.71 20.3-.48-.88c.45-.24.72-.74 1.03-1.32.44-.81.93-1.74 2.1-2.13l.32.95c-.79.26-1.15.94-1.54 1.65-.35.67-.71 1.35-1.43 1.73zM30.31 19.66l-.18-.98c.61-.11.95-.34 1.35-.59.44-.28.93-.61 1.78-.76l.18.98c-.65.12-1 .35-1.41.61-.43.28-.92.6-1.72.74zM38.32 20.39c-.69-.24-1.17-.66-1.64-1.07-.45-.39-.87-.77-1.47-.95l.29-.96c.8.24 1.35.73 1.84 1.15.41.36.8.7 1.3.87z" opacity="1" data-original="#525f70"></path><g fill="#c6cc4a"><circle cx="44.54" cy="16.31" r="1.02" fill="#c6cc4a" opacity="1" data-original="#c6cc4a"></circle><path d="M44.54 17.82a1.52 1.52 0 1 1-.001-3.039 1.52 1.52 0 0 1 .001 3.039zm0-2.03c-.29 0-.52.23-.52.52s.23.52.52.52.52-.23.52-.52-.24-.52-.52-.52z" fill="#c6cc4a" opacity="1" data-original="#c6cc4a"></path></g><g fill="#6cd8d5"><circle cx="39.48" cy="20.09" r="1.02" fill="#6cd8d5" opacity="1" data-original="#6cd8d5"></circle><path d="M39.48 21.61a1.52 1.52 0 1 1-.001-3.039 1.52 1.52 0 0 1 .001 3.039zm0-2.04c-.29 0-.52.23-.52.52s.23.52.52.52.52-.23.52-.52-.23-.52-.52-.52z" fill="#6cd8d5" opacity="1" data-original="#6cd8d5"></path></g><g fill="#ffb95c"><circle cx="34.35" cy="17.74" r="1.02" fill="#ffb95c" opacity="1" data-original="#ffb95c"></circle><path d="M34.35 19.26a1.52 1.52 0 1 1-.001-3.039 1.52 1.52 0 0 1 .001 3.039zm0-2.03c-.29 0-.52.23-.52.52s.23.52.52.52.52-.23.52-.52-.24-.52-.52-.52z" fill="#ffb95c" opacity="1" data-original="#ffb95c"></path></g><g fill="#fa4968"><circle cx="29.21" cy="19.26" r="1.02" fill="#fa4968" opacity="1" data-original="#fa4968"></circle><path d="M29.21 20.78a1.52 1.52 0 1 1-.001-3.039 1.52 1.52 0 0 1 .001 3.039zm0-2.04c-.29 0-.52.23-.52.52s.23.52.52.52.52-.23.52-.52-.23-.52-.52-.52z" fill="#fa4968" opacity="1" data-original="#fa4968"></path></g><path fill="#f4f4f4" d="M45.09 44.66H18.47c-1.12 0-2.03-.91-2.03-2.03V37.6c0-1.12.91-2.03 2.03-2.03H45.1c1.12 0 2.03.91 2.03 2.03v5.03a2.04 2.04 0 0 1-2.04 2.03z" opacity="1" data-original="#f4f4f4"></path><path fill="#a7cec8" d="M45.09 44.66h-6.42c-1.12 0-2.03-.91-2.03-2.03V37.6c0-1.12.91-2.03 2.03-2.03h6.42c1.12 0 2.03.91 2.03 2.03v5.03c0 1.12-.9 2.03-2.03 2.03z" opacity="1" data-original="#a7cec8"></path><path fill="#ffffff" d="m22.79 38.98-.89 2.27-.73-1.81-.74 1.81-.88-2.27" opacity="1" data-original="#ffffff"></path><path fill="#525f70" d="M21.9 41.75c-.2 0-.39-.12-.46-.31l-.27-.67-.27.67c-.08.19-.26.31-.46.31-.21 0-.39-.13-.46-.32l-.89-2.27.93-.36.43 1.1.26-.65c.15-.38.77-.38.93 0l.26.65.43-1.1.93.36-.89 2.27c-.07.19-.26.32-.47.32.01 0 .01 0 0 0z" opacity="1" data-original="#525f70"></path><path fill="#ffffff" d="m27.76 38.98-.89 2.27-.73-1.81-.74 1.81-.88-2.27" opacity="1" data-original="#ffffff"></path><path fill="#525f70" d="M26.87 41.75c-.2 0-.39-.12-.46-.31l-.27-.67-.27.67c-.08.19-.26.31-.46.31-.21 0-.39-.13-.46-.32l-.89-2.27.93-.36.43 1.1.26-.65c.15-.38.77-.38.93 0l.26.65.43-1.1.93.36-.89 2.27c-.08.19-.26.32-.47.32z" opacity="1" data-original="#525f70"></path><path fill="#ffffff" d="m32.73 38.98-.89 2.27-.73-1.81-.74 1.81-.88-2.27" opacity="1" data-original="#ffffff"></path><path fill="#525f70" d="M31.84 41.75c-.2 0-.39-.12-.46-.31l-.27-.67-.27.67c-.08.19-.26.31-.46.31-.21 0-.39-.13-.46-.32l-.89-2.27.93-.36.43 1.1.26-.65c.15-.38.77-.38.93 0l.26.65.43-1.1.93.36-.89 2.27c-.08.19-.26.32-.47.32z" opacity="1" data-original="#525f70"></path><circle cx="41.5" cy="39.73" r="1.78" fill="#ffffff" opacity="1" data-original="#ffffff"></circle><path fill="#525f70" d="M41.5 42.01c-.58 0-1.17-.22-1.61-.67-.89-.89-.89-2.33 0-3.22s2.33-.89 3.22 0 .89 2.33 0 3.22c-.44.44-1.03.67-1.61.67zm0-3.56c-.33 0-.66.12-.9.37a1.28 1.28 0 1 0 1.81 0c-.26-.25-.58-.37-.91-.37z" opacity="1" data-original="#525f70"></path><path fill="#ffffff" d="m42.76 40.99 1.29 1.29" opacity="1" data-original="#ffffff"></path><path fill="#525f70" d="m42.393 41.342.707-.707 1.287 1.286-.707.707z" opacity="1" data-original="#525f70"></path></g></svg>